<svg width="794" height="240" viewBox="0 0 794 240" fill="none" xmlns="http://www.w3.org/2000/svg">
<path d="M156.959 47.932C155.995 58.536 152.621 67.8547 146.837 75.888C141.053 83.7607 133.662 89.866 124.665 94.204C107.473 102.88 87.5506 107.218 64.8966 107.218C60.8799 107.218 57.1846 106.977 53.8106 106.495C40.4752 140.235 33.8076 162.969 33.8076 174.698C33.8076 177.108 34.1289 178.875 34.7716 180H3.68257C8.18124 160.559 17.6606 133.567 32.1206 99.024C51.4006 53.0733 63.8522 26.965 69.4756 20.699C55.8189 21.0203 41.9212 23.832 27.7826 29.134C13.8046 34.2753 5.6909 40.461 3.44157 47.691C3.2809 48.173 2.95957 48.414 2.47757 48.414C1.03157 48.414 0.30857 47.3697 0.30857 45.281C0.30857 44.9597 0.469237 44.1563 0.79057 42.871C3.84324 34.0343 8.26157 27.206 14.0456 22.386C19.8296 17.566 25.4529 14.5937 30.9156 13.469C36.5389 12.3443 43.4476 11.782 51.6416 11.782H112.615C127.235 11.782 138.241 14.915 145.632 21.181C153.183 27.447 156.959 35.3197 156.959 44.799V47.932ZM58.1486 102.639C69.7166 102.639 81.2042 100.631 92.6116 96.614C104.18 92.5973 113.659 86.492 121.05 78.298C128.44 69.9433 132.136 60.0623 132.136 48.655C132.136 30.339 121.05 20.458 98.8776 19.012C88.2736 32.1867 75.4202 56.126 60.3176 90.83L55.2566 102.639H58.1486ZM239.678 120.714C240.16 119.75 240.642 119.268 241.124 119.268C242.088 119.268 242.57 120.473 242.57 122.883C242.57 130.595 239.437 137.022 233.171 142.163C227.066 147.144 221.282 149.634 215.819 149.634C210.517 149.634 205.938 148.108 202.082 145.055C196.298 156.462 189.389 165.46 181.356 172.047C173.483 178.634 163.281 181.928 150.749 181.928C142.716 181.928 136.128 179.518 130.987 174.698C126.006 169.717 123.516 162.246 123.516 152.285C123.516 142.163 125.765 131.8 130.264 121.196C134.923 110.431 141.832 101.193 150.99 93.481C160.309 85.769 170.672 81.913 182.079 81.913C201.198 81.913 210.758 92.035 210.758 112.279C210.758 119.991 209.071 128.105 205.697 136.62C208.107 139.994 211.561 141.681 216.06 141.681C224.415 141.681 232.287 134.692 239.678 120.714ZM199.431 105.772C198.788 97.2567 194.932 92.999 187.863 92.999C176.777 92.999 165.932 103.764 155.328 125.293C149.544 137.182 146.652 147.947 146.652 157.587C146.652 167.227 150.829 172.288 159.184 172.77C166.093 172.77 172.439 169.155 178.223 161.925C184.168 154.534 189.148 146.421 193.165 137.584C187.702 132.925 184.971 127.06 184.971 119.991C184.971 115.653 186.096 112.199 188.345 109.628C190.755 107.057 193.968 105.772 197.985 105.772H199.431ZM296.607 83.118L308.898 83.359H311.308C308.898 85.1263 305.443 90.348 300.945 99.024C296.607 107.7 293.313 114.287 291.064 118.786C288.975 123.124 286.565 129.069 283.834 136.62C281.263 144.011 279.978 150.036 279.978 154.695C279.978 159.354 281.584 161.684 284.798 161.684C286.886 161.523 289.778 160.077 293.474 157.346C297.33 154.454 300.463 151.482 302.873 148.429C305.443 145.216 308.175 141.199 311.067 136.379C314.119 131.398 316.69 127.141 318.779 123.606C321.028 119.911 322.313 118.063 322.635 118.063C323.759 118.063 324.322 119.589 324.322 122.642C324.322 125.534 323.518 128.346 321.912 131.077C315.003 142.484 309.299 151.241 304.801 157.346C300.302 163.451 294.839 169.075 288.413 174.216C282.147 179.197 276.443 181.687 271.302 181.687C262.144 181.687 257.565 174.939 257.565 161.443C257.565 152.285 259.332 141.922 262.867 130.354C266.401 118.786 271.623 107.62 278.532 96.855C272.908 101.354 267.285 103.603 261.662 103.603C259.894 103.603 258.047 103.201 256.119 102.398C244.711 124.891 238.526 136.138 237.562 136.138C236.758 136.138 236.357 134.853 236.357 132.282C236.357 129.551 237.321 125.855 239.249 121.196C241.337 116.376 243.506 111.797 245.756 107.459C248.166 103.121 249.451 100.711 249.612 100.229C243.828 97.337 240.936 92.6777 240.936 86.251C240.936 83.0377 241.9 80.1457 243.828 77.575C245.916 75.0043 248.728 73.719 252.263 73.719C255.797 73.719 258.689 74.8437 260.939 77.093C260.617 78.057 260.457 79.503 260.457 81.431C260.457 85.769 261.983 89.2233 265.036 91.794C268.249 94.204 272.105 95.409 276.604 95.409C277.889 95.409 278.853 95.3287 279.496 95.168C285.119 87.1347 290.823 83.118 296.607 83.118ZM387.69 41.907C379.817 47.3697 370.98 61.3477 361.18 83.841H385.521L385.762 84.082C385.762 84.8853 384.878 86.3313 383.111 88.42C381.343 90.348 379.817 91.312 378.532 91.312H357.806C345.113 122.803 338.767 143.047 338.767 152.044C338.767 158.149 340.695 161.202 344.551 161.202C350.174 161.202 356.761 156.382 364.313 146.742C366.08 144.653 368.41 141.119 371.302 136.138C378.692 124.249 382.548 118.304 382.87 118.304C383.834 118.304 384.316 119.589 384.316 122.16C384.155 128.265 377.487 140.155 364.313 157.828C359.975 163.612 354.753 168.994 348.648 173.975C342.542 178.956 336.999 181.446 332.019 181.446C322.861 181.446 318.282 175.019 318.282 162.166C318.282 151.401 320.852 139.03 325.994 125.052V124.811C322.941 130.434 320.29 134.612 318.041 137.343C315.952 140.074 314.747 141.44 314.426 141.44C313.783 141.44 313.462 140.476 313.462 138.548C313.462 136.459 314.506 133.166 316.595 128.667C318.844 124.168 321.816 118.304 325.512 111.074C329.368 103.844 332.501 97.2567 334.911 91.312H318.764C318.282 91.312 318.041 90.9907 318.041 90.348C318.041 89.5447 318.603 88.2593 319.728 86.492C321.013 84.7247 321.977 83.841 322.62 83.841H340.936C352.504 56.0457 364.232 42.148 376.122 42.148C383.03 42.148 386.886 42.0677 387.69 41.907ZM396.371 104.567C384.321 127.542 377.654 139.03 376.368 139.03C375.565 139.03 375.163 137.745 375.163 135.174C375.163 132.443 375.645 130.113 376.609 128.185C384.482 114.689 390.427 101.836 394.443 89.625C395.086 87.5363 395.809 86.1707 396.612 85.528C397.416 84.7247 398.781 84.323 400.709 84.323H402.637L423.845 86.01C424.809 83.6 426.416 79.1817 428.665 72.755C431.075 66.3283 432.923 61.428 434.208 58.054C435.494 54.68 437.422 50.101 439.992 44.317C442.563 38.533 444.893 33.954 446.981 30.58C449.07 27.206 451.801 23.4303 455.175 19.253C458.549 14.915 461.923 11.6213 465.297 9.372C473.491 3.90933 482.328 1.17799 491.807 1.17799C508.517 1.17799 516.871 7.36366 516.871 19.735C516.871 24.3943 515.506 28.5717 512.774 32.267C510.204 35.9623 506.749 37.81 502.411 37.81C500.323 37.81 498.475 37.2477 496.868 36.123C495.422 34.9983 494.699 33.713 494.699 32.267C494.699 30.6603 495.904 28.17 498.314 24.796C500.724 21.2613 501.929 18.289 501.929 15.879C501.929 13.3083 500.885 11.2197 498.796 9.613C496.868 8.00633 494.539 7.203 491.807 7.203C486.987 7.203 482.167 9.77366 477.347 14.915C472.527 20.0563 468.109 26.8043 464.092 35.159C457.023 49.7797 450.677 65.3643 445.053 81.913C444.893 82.7163 444.732 83.2787 444.571 83.6C444.089 84.8853 443.688 86.01 443.366 86.974C468.752 86.974 483.212 85.8493 486.746 83.6C484.658 88.7413 480.159 92.1153 473.25 93.722C466.342 95.3287 455.256 96.2927 439.992 96.614L433.003 116.858C423.042 145.457 415.33 165.138 409.867 175.903C404.405 186.507 399.183 195.665 394.202 203.377C389.382 211.089 384.562 217.435 379.742 222.416C368.817 233.984 357.49 239.768 345.761 239.768C337.889 239.768 332.105 237.92 328.409 234.225C324.553 230.53 322.625 226.352 322.625 221.693C322.625 217.194 323.67 213.419 325.758 210.366C327.847 207.313 330.177 205.787 332.747 205.787C335.318 205.787 337.246 206.349 338.531 207.474C339.817 208.759 340.459 210.045 340.459 211.33C340.459 212.776 339.656 214.945 338.049 217.837C336.282 220.89 335.398 223.46 335.398 225.549C335.398 227.638 335.961 229.405 337.085 230.851C338.21 232.297 340.218 233.02 343.11 233.02C346.002 233.02 349.457 231.574 353.473 228.682C357.329 225.951 361.105 221.934 364.8 216.632C378.618 196.227 396.853 156.302 419.507 96.855H412.759C404.565 96.855 399.103 99.4257 396.371 104.567ZM570.582 120.714C571.064 119.75 571.546 119.268 572.028 119.268C572.992 119.268 573.474 120.473 573.474 122.883C573.474 130.595 570.341 137.022 564.075 142.163C557.97 147.144 552.186 149.634 546.723 149.634C541.421 149.634 536.842 148.108 532.986 145.055C527.202 156.462 520.294 165.46 512.26 172.047C504.388 178.634 494.185 181.928 481.653 181.928C473.62 181.928 467.033 179.518 461.891 174.698C456.911 169.717 454.42 162.246 454.42 152.285C454.42 142.163 456.67 131.8 461.168 121.196C465.828 110.431 472.736 101.193 481.894 93.481C491.213 85.769 501.576 81.913 512.983 81.913C532.103 81.913 541.662 92.035 541.662 112.279C541.662 119.991 539.975 128.105 536.601 136.62C539.011 139.994 542.466 141.681 546.964 141.681C555.319 141.681 563.192 134.692 570.582 120.714ZM530.335 105.772C529.693 97.2567 525.837 92.999 518.767 92.999C507.681 92.999 496.836 103.764 486.232 125.293C480.448 137.182 477.556 147.947 477.556 157.587C477.556 167.227 481.734 172.288 490.088 172.77C496.997 172.77 503.343 169.155 509.127 161.925C515.072 154.534 520.053 146.421 524.069 137.584C518.607 132.925 515.875 127.06 515.875 119.991C515.875 115.653 517 112.199 519.249 109.628C521.659 107.057 524.873 105.772 528.889 105.772H530.335ZM654.262 32.99C648.478 44.7187 639.641 58.054 627.752 72.996C615.863 87.7773 605.178 99.6667 595.699 108.664L591.843 119.75C589.915 125.373 588.067 132.202 586.3 140.235C584.533 148.268 583.729 153.972 583.89 157.346C583.89 162.166 585.657 164.576 589.192 164.576C592.727 164.576 596.904 162.568 601.724 158.551C606.705 154.534 610.32 151.08 612.569 148.188C614.818 145.135 617.389 141.199 620.281 136.379C623.334 131.559 625.904 127.382 627.993 123.847C630.242 120.312 631.528 118.545 631.849 118.545C632.813 118.545 633.295 120.071 633.295 123.124C633.295 126.016 632.492 128.828 630.885 131.559C622.048 146.501 614.899 157.025 609.436 163.13C598.35 175.341 586.943 181.446 575.214 181.446C566.217 181.446 561.718 175.341 561.718 163.13C561.718 151.08 567.1 130.033 577.865 99.988C578.668 97.4173 580.516 92.035 583.408 83.841C586.3 75.647 588.79 69.3007 590.879 64.802C592.968 60.1427 595.779 54.0373 599.314 46.486C602.849 38.9347 606.223 32.9097 609.436 28.411C612.81 23.9123 616.505 19.3333 620.522 14.674C628.395 5.35533 636.91 0.695996 646.068 0.695996C655.226 0.695996 659.805 4.87333 659.805 13.228C659.805 19.6547 657.957 26.242 654.262 32.99ZM649.201 6.72099H647.514C637.713 6.72099 622.048 36.123 600.519 94.927C622.53 69.0597 637.553 47.8517 645.586 31.303C650.085 21.181 652.334 14.5937 652.334 11.541C652.334 8.32766 651.29 6.72099 649.201 6.72099ZM691.158 51.788H690.194C686.98 51.788 683.847 53.1537 680.795 55.885C677.903 58.6163 675.814 61.428 674.529 64.32C670.351 62.7133 668.263 59.8213 668.263 55.644C668.263 51.4667 670.191 47.2893 674.047 43.112C677.903 38.774 681.598 36.605 685.133 36.605C688.667 36.605 691.318 37.4083 693.086 39.015C694.853 40.6217 695.737 42.7103 695.737 45.281C695.737 47.691 694.21 49.86 691.158 51.788ZM658.382 83.6L670.432 83.841H672.842C670.271 85.769 666.817 90.9907 662.479 99.506C658.301 108.021 655.168 114.448 653.08 118.786C650.991 123.124 648.581 128.988 645.85 136.379C643.279 143.77 641.994 149.795 641.994 154.454C641.994 159.113 643.52 161.443 646.573 161.443C648.661 161.443 651.553 160.077 655.249 157.346C659.105 154.454 662.238 151.482 664.648 148.429C667.058 145.216 669.709 141.199 672.601 136.379C675.653 131.559 678.224 127.382 680.313 123.847C682.562 120.312 683.847 118.545 684.169 118.545C685.133 118.545 685.615 120.071 685.615 123.124C685.615 126.016 684.811 128.828 683.205 131.559C677.26 141.52 671.797 149.875 666.817 156.623C661.997 163.21 656.454 168.994 650.188 173.975C643.922 178.956 638.218 181.446 633.077 181.446C624.079 181.446 619.581 175.18 619.581 162.648C619.581 143.207 626.248 121.678 639.584 98.06C645.207 88.42 651.473 83.6 658.382 83.6ZM790.401 120.714C790.883 119.75 791.365 119.268 791.847 119.268C792.811 119.268 793.293 120.473 793.293 122.883C793.293 130.595 790.16 137.022 783.894 142.163C777.788 147.144 772.004 149.634 766.542 149.634C761.24 149.634 756.661 148.108 752.805 145.055C747.021 156.462 740.112 165.46 732.079 172.047C724.206 178.634 714.004 181.928 701.472 181.928C693.438 181.928 686.851 179.518 681.71 174.698C676.729 169.717 674.239 162.246 674.239 152.285C674.239 142.163 676.488 131.8 680.987 121.196C685.646 110.431 692.555 101.193 701.713 93.481C711.031 85.769 721.394 81.913 732.802 81.913C751.921 81.913 761.481 92.035 761.481 112.279C761.481 119.991 759.794 128.105 756.42 136.62C758.83 139.994 762.284 141.681 766.783 141.681C775.137 141.681 783.01 134.692 790.401 120.714ZM750.154 105.772C749.511 97.2567 745.655 92.999 738.586 92.999C727.5 92.999 716.655 103.764 706.051 125.293C700.267 137.182 697.375 147.947 697.375 157.587C697.375 167.227 701.552 172.288 709.907 172.77C716.815 172.77 723.162 169.155 728.946 161.925C734.89 154.534 739.871 146.421 743.888 137.584C738.425 132.925 735.694 127.06 735.694 119.991C735.694 115.653 736.818 112.199 739.068 109.628C741.478 107.057 744.691 105.772 748.708 105.772H750.154Z" fill="#182153"/>
</svg>
